<svg width="27" height="27" viewBox="0 0 27 27" fill="none" xmlns="http://www.w3.org/2000/svg">
<path d="M3 18V3H0.5V0.5H4.25C4.58152 0.5 4.89946 0.631696 5.13388 0.866116C5.3683 1.10054 5.5 1.41848 5.5 1.75V16.75H21.0475L23.5475 6.75H8V4.25H25.15C25.34 4.25001 25.5275 4.29333 25.6983 4.37667C25.869 4.46002 26.0185 4.58119 26.1354 4.73098C26.2523 4.88078 26.3335 5.05525 26.3729 5.24114C26.4122 5.42703 26.4087 5.61944 26.3625 5.80375L23.2375 18.3037C23.1698 18.5741 23.0137 18.814 22.794 18.9854C22.5743 19.1569 22.3037 19.25 22.025 19.25H4.25C3.91848 19.25 3.60054 19.1183 3.36612 18.8839C3.1317 18.6495 3 18.3315 3 18ZM5.5 26.75C4.83696 26.75 4.20107 26.4866 3.73223 26.0178C3.26339 25.5489 3 24.913 3 24.25C3 23.587 3.26339 22.9511 3.73223 22.4822C4.20107 22.0134 4.83696 21.75 5.5 21.75C6.16304 21.75 6.79893 22.0134 7.26777 22.4822C7.73661 22.9511 8 23.587 8 24.25C8 24.913 7.73661 25.5489 7.26777 26.0178C6.79893 26.4866 6.16304 26.75 5.5 26.75ZM20.5 26.75C19.837 26.75 19.2011 26.4866 18.7322 26.0178C18.2634 25.5489 18 24.913 18 24.25C18 23.587 18.2634 22.9511 18.7322 22.4822C19.2011 22.0134 19.837 21.75 20.5 21.75C21.163 21.75 21.7989 22.0134 22.2678 22.4822C22.7366 22.9511 23 23.587 23 24.25C23 24.913 22.7366 25.5489 22.2678 26.0178C21.7989 26.4866 21.163 26.75 20.5 26.75Z" fill="white"/>
</svg>
