<svg width="159" height="67" viewBox="0 0 159 67" fill="none" xmlns="http://www.w3.org/2000/svg">
<path fill-rule="evenodd" clip-rule="evenodd" d="M76.6837 29.3558L96.3575 21.1088C97.4675 20.6319 97.0928 19.7203 95.5112 19.0611L51.3353 0.617484C49.7536 -0.0417159 47.5614 -0.210022 46.4376 0.266846L0.638394 19.4538C-0.485428 19.9166 -0.0969463 20.8423 1.48473 21.5015L20.3261 29.3698V25.2043C38.6402 15.0638 57.44 15.19 76.6837 25.2043V29.3558Z" fill="black"/>
<path d="M13.2779 25.4707V33.0445C11.5852 33.2689 10.3226 34.2226 10.3226 35.3587C10.3226 36.2844 11.1551 37.0839 12.376 37.4766C12.2096 37.7711 12.1124 38.0937 12.1124 38.4584V41.8946C12.1124 42.5959 12.487 43.213 13.042 43.5636L9.96191 65.4014L11.2661 65.7801L14.5266 67.0003L15.9279 65.4996H17.787L14.9983 43.5636C15.5671 43.227 15.9418 42.5959 15.9418 41.8946V38.4584C15.9418 38.0937 15.8446 37.7711 15.6781 37.4766C16.8991 37.0839 17.7315 36.2844 17.7315 35.3587C17.7315 34.2647 16.5522 33.339 14.9567 33.0866V25.4707H13.2779Z" fill="black"/>
<path fill-rule="evenodd" clip-rule="evenodd" d="M22.0464 26.1296C39.2367 17.9247 56.8849 18.0229 74.9631 26.1296V40.071C58.1336 32.1606 40.6241 30.8983 22.0464 40.071V26.1296Z" fill="black"/>
<path d="M94.7341 49.0346C94.7341 51.2927 94.1375 53.0879 92.9304 54.4484C91.6817 55.8369 89.9613 56.5382 87.7691 56.5382C87.228 56.5382 86.4095 56.5102 85.3134 56.4681C84.2173 56.426 83.3987 56.398 82.8438 56.398C82.5385 56.398 82.3859 56.5943 82.3859 56.987C82.3859 57.492 82.4137 58.2634 82.483 59.2732C82.5385 60.2971 82.5801 61.0544 82.5801 61.5594C82.5801 61.7277 82.483 61.7978 82.3165 61.7978C82.1223 61.7978 81.8171 61.7697 81.4147 61.7277C81.0123 61.6856 80.7071 61.6575 80.5129 61.6575C80.3464 61.6575 80.0966 61.6716 79.7637 61.6996C79.4307 61.7277 79.1809 61.7417 79.0283 61.7417C78.7924 61.7417 78.6676 61.5874 78.6676 61.2929C78.6676 60.241 78.7092 58.6701 78.8063 56.5522C78.8896 54.4484 78.9451 52.8635 78.9451 51.7976C78.9451 48.8101 78.8341 45.5843 78.6121 42.162L78.5982 41.9517C78.5843 41.7413 78.7092 41.6291 78.9728 41.6291C79.4862 41.6291 80.2631 41.6291 81.2898 41.6431C82.3165 41.6571 83.0935 41.6571 83.6207 41.6571C84.0647 41.6571 84.7307 41.6431 85.6325 41.601C86.5205 41.5589 87.2003 41.5449 87.6443 41.5449C89.7393 41.5449 91.4597 42.2602 92.8055 43.7049C94.0681 45.1495 94.7341 46.9167 94.7341 49.0346ZM91.1406 49.259C91.1406 47.8143 90.7521 46.6642 89.989 45.8087C89.1982 44.9111 88.0883 44.4622 86.6869 44.4622C86.2568 44.4622 85.466 44.5043 84.3561 44.5744C83.0796 44.6446 82.4137 44.7287 82.372 44.7988C82.3027 44.911 82.2749 46.5661 82.2749 49.7499C82.2749 50.1566 82.2888 50.7597 82.3165 51.5592C82.3443 52.3586 82.3582 52.9757 82.3582 53.3684C82.3582 53.4526 82.4692 53.5227 82.6773 53.5648C83.2045 53.677 84.6474 53.7191 87.0199 53.7191C88.3519 53.7191 89.3786 53.2983 90.1278 52.4708C90.7938 51.6854 91.1406 50.6054 91.1406 49.259Z" fill="white"/>
<path d="M121.844 61.4748C121.844 61.6711 121.706 61.7833 121.428 61.7833C121.262 61.7833 120.998 61.7693 120.651 61.7413C120.304 61.7132 120.041 61.6992 119.874 61.6992C119.694 61.6992 119.43 61.7132 119.083 61.7413C118.737 61.7693 118.473 61.7833 118.307 61.7833C118.071 61.7833 117.946 61.6711 117.946 61.4467C117.946 60.3527 118.001 58.7117 118.098 56.5097C118.196 54.3077 118.251 52.6527 118.251 51.5587C118.251 50.4928 118.196 48.8939 118.098 46.762C118.001 44.6301 117.946 43.0312 117.946 41.9653C117.946 41.7268 118.057 41.6006 118.279 41.6006C118.459 41.6006 118.737 41.6146 119.111 41.6427C119.486 41.6707 119.763 41.6847 119.958 41.6847C120.124 41.6847 120.388 41.6707 120.721 41.6427C121.068 41.6146 121.317 41.6006 121.484 41.6006C121.733 41.6006 121.858 41.6988 121.858 41.8951C121.858 42.9751 121.817 44.588 121.747 46.7339C121.678 48.8798 121.636 50.4928 121.636 51.5727C121.636 52.6808 121.678 54.3358 121.761 56.5378C121.803 58.7117 121.844 60.3668 121.844 61.4748Z" fill="white"/>
<path d="M142.739 41.8951C142.739 43.0031 142.698 44.6581 142.628 46.8882C142.559 49.1183 142.517 50.7873 142.517 51.8953C142.517 52.9472 142.531 54.5041 142.545 56.5939C142.559 58.6837 142.573 60.2405 142.573 61.2924C142.573 61.615 142.448 61.7693 142.212 61.7693C142.073 61.7693 141.851 61.7553 141.574 61.7272C141.282 61.6992 141.074 61.6851 140.936 61.6851C140.783 61.6851 140.547 61.6992 140.242 61.7272C139.923 61.7553 139.701 61.7693 139.548 61.7693C139.382 61.7693 139.174 61.615 138.938 61.2924C136.884 58.5013 133.776 54.3358 129.614 48.7957C128.962 47.9541 128.587 47.4773 128.49 47.3791C128.393 47.3791 128.352 47.5754 128.352 47.9682C128.352 49.4408 128.379 51.6709 128.421 54.6163C128.463 57.5757 128.49 59.7917 128.49 61.2784C128.49 61.601 128.393 61.7553 128.199 61.7553C128.032 61.7553 127.797 61.7412 127.464 61.7132C127.131 61.6851 126.881 61.6711 126.728 61.6711C126.562 61.6711 126.298 61.6851 125.965 61.7132C125.632 61.7412 125.369 61.7553 125.202 61.7553C124.966 61.7553 124.841 61.6571 124.841 61.4607C124.841 60.4088 124.897 58.8099 124.994 56.692C125.091 54.5742 125.147 52.9753 125.147 51.9093C125.147 50.7452 125.105 48.6554 125.022 45.6399C125.008 44.8545 124.952 43.6764 124.883 42.1055L124.869 41.9232C124.855 41.7829 124.98 41.6987 125.216 41.6987C125.826 41.6847 126.312 41.6707 126.673 41.6426C126.811 41.6286 127.061 41.6006 127.422 41.5304C127.741 41.4743 127.977 41.4463 128.157 41.4463C128.241 41.4463 128.393 41.5865 128.601 41.8671C130.78 44.8966 134.123 49.4128 138.619 55.3877C138.813 55.6401 139.007 55.8505 139.174 56.0328C139.243 55.6261 139.271 54.7144 139.271 53.2698C139.271 52.0215 139.229 50.1561 139.132 47.6596C139.035 45.1631 138.993 43.2977 138.993 42.0634C138.993 41.7408 139.09 41.5865 139.285 41.5865C139.451 41.5865 139.715 41.6006 140.061 41.6286C140.408 41.6567 140.672 41.6707 140.838 41.6707C141.019 41.6707 141.282 41.6567 141.643 41.6286C142.004 41.6006 142.267 41.5865 142.448 41.5865C142.642 41.5865 142.739 41.6847 142.739 41.8951Z" fill="white"/>
<path d="M159 44.3077C159 44.5601 158.917 44.6864 158.75 44.6864C158.487 44.6864 156.808 44.6303 153.714 44.5181C153.631 47.4494 153.589 49.7917 153.589 51.5589C153.589 52.6669 153.631 54.3219 153.714 56.5239C153.797 58.7259 153.839 60.381 153.839 61.489C153.839 61.6853 153.7 61.7975 153.422 61.7975C153.256 61.7975 152.992 61.7835 152.646 61.7555C152.299 61.7274 152.035 61.7134 151.855 61.7134C151.688 61.7134 151.425 61.7274 151.078 61.7555C150.731 61.7835 150.467 61.7975 150.301 61.7975C150.065 61.7975 149.94 61.6713 149.94 61.4329C149.94 60.3389 149.982 58.6979 150.079 56.5099C150.162 54.3219 150.217 52.6669 150.217 51.5729C150.217 49.8618 150.162 47.5195 150.065 44.5321C147.623 44.6864 145.819 44.7565 144.682 44.7565C144.571 44.7565 144.515 44.7144 144.515 44.6162C144.515 44.4479 144.557 44.1955 144.64 43.8729C144.751 43.4521 144.807 43.1997 144.82 43.1295C144.834 42.7929 144.904 42.3301 145.015 41.727C145.056 41.6008 145.139 41.5447 145.25 41.5447L145.417 41.5587C148.775 41.755 150.994 41.8672 152.063 41.8672C153.006 41.8672 154.56 41.7971 156.711 41.6569C158.181 41.5587 158.792 41.5166 158.542 41.5166C158.792 41.5166 158.931 41.6008 158.958 41.7691C158.944 41.6569 158.931 42.1337 158.931 43.1716C158.931 43.2978 158.944 43.4942 158.972 43.7607C158.986 43.9711 159 44.1674 159 44.3077Z" fill="white"/>
<path d="M106.125 41.4463C100.95 41.4463 96.7598 46.6077 96.7598 52.9613C96.7598 59.3289 106.125 64.4762 106.125 64.4762C106.125 64.4762 115.49 59.3148 115.49 52.9613C115.49 46.5937 111.3 41.4463 106.125 41.4463ZM106.125 56.0469C103.433 56.0469 101.255 53.8449 101.255 51.1239C101.255 48.403 103.433 46.2009 106.125 46.2009C108.817 46.2009 110.995 48.403 110.995 51.1239C110.995 53.8449 108.817 56.0469 106.125 56.0469Z" fill="white"/>
<path d="M40.2914 57.589C40.2914 57.7012 40.2081 57.8555 40.0277 58.0658C38.2241 60.1837 35.9764 61.2496 33.3126 61.2496C30.5238 61.2496 28.3039 60.2258 26.639 58.164C25.0851 56.2566 24.3081 53.8582 24.3081 50.997C24.3081 48.1217 25.0989 45.7234 26.6945 43.7879C28.3872 41.7121 30.6071 40.6602 33.3819 40.6602C36.1984 40.6602 38.3628 41.6279 39.9029 43.5494C40.0555 43.7458 40.1249 43.9141 40.1249 44.0403C40.1249 44.1946 39.8751 44.6715 39.3895 45.4569C38.9039 46.2423 38.5987 46.635 38.5016 46.635C38.3767 46.635 38.0992 46.4106 37.6552 45.9478C37.1141 45.3868 36.5869 44.966 36.1152 44.6855C35.3105 44.2226 34.4364 43.9982 33.4652 43.9982C31.6338 43.9982 30.2047 44.6995 29.178 46.1161C28.2623 47.3784 27.8183 48.9773 27.8183 50.8988C27.8183 52.8203 28.2623 54.4332 29.1641 55.7236C30.1908 57.1822 31.606 57.8975 33.4374 57.8975C34.3531 57.8975 35.2272 57.6731 36.0736 57.2103C36.6285 56.9158 37.1974 56.481 37.7662 55.934C38.2518 55.4711 38.5154 55.2467 38.5571 55.2467C38.6126 55.2467 38.9178 55.6254 39.4728 56.3688C40.0277 57.1121 40.2914 57.5189 40.2914 57.589Z" fill="white"/>
<path d="M55.012 58.0101C55.012 58.1644 54.9704 58.3748 54.901 58.6553C54.8178 59.006 54.7623 59.2304 54.7484 59.3005C54.7206 59.6371 54.6513 60.128 54.5542 60.7732C54.5125 60.9415 54.3877 61.0256 54.1934 61.0256C54.0963 61.0256 53.9298 61.0116 53.6662 60.9695C52.5285 60.8012 50.7526 60.7171 48.3662 60.7171C47.6864 60.7171 46.6735 60.7311 45.3 60.7732C43.9403 60.8153 42.9136 60.8293 42.2337 60.8293C41.9285 60.8293 41.7759 60.689 41.7759 60.4225C41.7759 59.3706 41.8314 57.7998 41.9562 55.6959C42.0672 53.5921 42.1366 52.0072 42.1366 50.9693C42.1366 49.9034 42.0811 47.9118 41.9701 44.9944C41.9562 44.2511 41.9007 43.1291 41.8175 41.6283L41.8036 41.432C41.7898 41.2216 41.9146 41.1094 42.1644 41.1094C42.8165 41.1094 43.7877 41.1234 45.0918 41.1655C46.396 41.2076 47.3672 41.2216 48.0193 41.2216C48.6437 41.2216 49.5733 41.2076 50.8081 41.1655C52.0429 41.1234 52.9725 41.1094 53.5968 41.1094C54.0269 41.1094 54.2628 41.2496 54.3044 41.5161C54.4987 42.7504 54.5958 43.5218 54.5958 43.8163C54.5958 44.0267 54.4987 44.1389 54.2905 44.1389C53.4997 44.1389 52.3065 44.0968 50.711 43.9986C49.1154 43.9145 47.9083 43.8584 47.1036 43.8584C46.3405 43.8584 45.8688 43.9566 45.6607 44.1669C45.4665 44.3773 45.3555 44.8822 45.3555 45.6957V47.7855C45.3555 48.3606 45.3693 48.6972 45.3971 48.7813C45.4803 49.0759 45.7162 49.2161 46.1185 49.2161C46.2295 49.2161 46.3822 49.2161 46.5903 49.2021C46.7984 49.2021 46.9649 49.2021 47.062 49.2021C48.8795 49.2021 50.5167 49.1741 51.9596 49.1039C52.5285 49.0899 53.1945 49.0338 53.9576 48.9637C54.1518 48.9497 54.2489 49.0338 54.2489 49.2161C54.2489 49.5107 54.2073 49.9735 54.1379 50.5906C54.0686 51.2078 54.0269 51.6706 54.0269 51.9792C54.0269 52.1475 53.8882 52.2316 53.6107 52.2316C53.4997 52.2316 53.0835 52.2036 52.3759 52.1334C51.8625 52.0773 50.6832 52.0493 48.8657 52.0493C47.3395 52.0493 46.3683 52.0633 45.9521 52.1054C45.5775 52.1334 45.3693 52.3298 45.3138 52.6945C45.3277 52.6243 45.3277 52.989 45.3277 53.7744V55.8502C45.3277 56.832 45.4803 57.4351 45.7717 57.6735C46.0076 57.8699 46.5903 57.9681 47.506 57.9681L49.0322 57.954C49.6843 57.954 51.5018 57.8418 54.4987 57.6174L54.7068 57.6034C54.9288 57.6455 55.012 57.7577 55.012 58.0101Z" fill="white"/>
<path d="M72.9378 48.3881C72.9378 50.5901 72.3551 52.3573 71.1758 53.6757C69.9548 55.0362 68.276 55.7094 66.1255 55.7094C65.5983 55.7094 64.7936 55.6814 63.7252 55.6393C62.6569 55.5972 61.8522 55.5692 61.3111 55.5692C61.0197 55.5692 60.8671 55.7655 60.8671 56.1442C60.8671 56.6351 60.8949 57.3925 60.9642 58.3743C61.0197 59.3701 61.0614 60.1134 61.0614 60.6043C61.0614 60.7586 60.9781 60.8428 60.7977 60.8428C60.6035 60.8428 60.3121 60.8147 59.9098 60.7726C59.5213 60.7306 59.2161 60.7025 59.0218 60.7025C58.8553 60.7025 58.6056 60.7165 58.2865 60.7446C57.9674 60.7726 57.7176 60.7867 57.565 60.7867C57.3292 60.7867 57.2182 60.6464 57.2182 60.3519C57.2182 59.328 57.2598 57.7852 57.3569 55.7234C57.4401 53.6617 57.4956 52.1189 57.4956 51.081C57.4956 48.1497 57.3847 45.0079 57.1765 41.6558L57.1627 41.4454C57.1488 41.2351 57.2737 41.1369 57.5234 41.1369C58.0229 41.1369 58.7721 41.1369 59.7849 41.1509C60.7977 41.1649 61.547 41.1649 62.0603 41.1649C62.4904 41.1649 63.1564 41.1509 64.0166 41.1088C64.8907 41.0668 65.5428 41.0527 65.9729 41.0527C68.0263 41.0527 69.7051 41.754 71.0231 43.1566C72.2996 44.6012 72.9378 46.3263 72.9378 48.3881ZM69.4276 48.6125C69.4276 47.2099 69.053 46.0739 68.3038 45.2323C67.5268 44.3487 66.4446 43.9139 65.071 43.9139C64.6409 43.9139 63.8778 43.956 62.7956 44.0261C61.547 44.0963 60.8949 44.1804 60.8671 44.2506C60.7977 44.3628 60.77 45.9757 60.77 49.0894C60.77 49.4821 60.7839 50.0712 60.8116 50.8566C60.8394 51.642 60.8532 52.2311 60.8532 52.6238C60.8532 52.708 60.9504 52.7781 61.1585 52.8202C61.6718 52.9183 63.087 52.9744 65.404 52.9744C66.7082 52.9744 67.7072 52.5677 68.4425 51.7542C69.0946 50.9828 69.4276 49.9309 69.4276 48.6125Z" fill="white"/>
</svg>
